<?xml version="1.0" encoding="UTF-8" standalone="no"?>
<svg
   xmlns:dc="http://purl.org/dc/elements/1.1/"
   xmlns:cc="http://creativecommons.org/ns#"
   xmlns:rdf="http://www.w3.org/1999/02/22-rdf-syntax-ns#"
   xmlns:svg="http://www.w3.org/2000/svg"
   xmlns="http://www.w3.org/2000/svg"
   xmlns:sodipodi="http://sodipodi.sourceforge.net/DTD/sodipodi-0.dtd"
   xmlns:inkscape="http://www.inkscape.org/namespaces/inkscape"
   fill="#000000"
   viewBox="0 0 50 50"
   width="50px"
   height="50px"
   version="1.1"
   id="svg4"
   sodipodi:docname="cpp.svg"
   inkscape:version="1.0.1 (0767f8302a, 2020-10-17)">
  <metadata
     id="metadata10">
    <rdf:RDF>
      <cc:Work
         rdf:about="">
        <dc:format>image/svg+xml</dc:format>
        <dc:type
           rdf:resource="http://purl.org/dc/dcmitype/StillImage" />
      </cc:Work>
    </rdf:RDF>
  </metadata>
  <defs
     id="defs8" />
  <sodipodi:namedview
     pagecolor="#ffffff"
     bordercolor="#666666"
     borderopacity="1"
     objecttolerance="10"
     gridtolerance="10"
     guidetolerance="10"
     inkscape:pageopacity="0"
     inkscape:pageshadow="2"
     inkscape:window-width="1848"
     inkscape:window-height="1016"
     id="namedview6"
     showgrid="false"
     inkscape:zoom="17.24"
     inkscape:cx="25"
     inkscape:cy="25"
     inkscape:window-x="72"
     inkscape:window-y="27"
     inkscape:window-maximized="1"
     inkscape:current-layer="svg4" />
  <path
     style="fill:#1565c0;stroke-width:0.0580046"
     d="M 24.145474,47.873575 C 23.92266,47.825837 23.557231,47.702012 23.333409,47.598408 22.582463,47.250808 5.9353784,37.863981 5.5830704,37.589487 5.1199468,37.228653 4.7250582,36.731741 4.4517562,36.165886 4.0217601,35.275607 4.0459474,35.941125 4.0459474,24.999993 4.0459474,14.058861 4.0217604,14.724379 4.4517562,13.8341 4.7250582,13.268245 5.1199468,12.771333 5.5830704,12.410499 5.9357287,12.135731 22.58462,2.7479991 23.33249,2.4022165 c 1.051671,-0.4862466 2.314755,-0.4847067 3.373924,0.00411 0.228629,0.1055148 4.286604,2.3675499 9.017723,5.0267446 8.547808,4.8044219 8.604789,4.8376429 9.039069,5.2699349 0.500225,0.497936 0.806652,0.988287 1.033066,1.653132 l 0.158028,0.464038 v 10.179817 10.179814 l -0.158028,0.464038 c -0.226414,0.664845 -0.532841,1.155196 -1.033066,1.653132 -0.43428,0.432292 -0.491261,0.465513 -9.039069,5.269934 -4.731119,2.659195 -8.789094,4.92123 -9.017723,5.026745 -0.77741,0.358785 -1.714689,0.461233 -2.56094,0.279919 z m 2.60929,-10.979411 c 2.68441,-0.399623 5.050895,-1.615608 6.905221,-3.54815 0.523179,-0.545247 0.896403,-0.992881 0.896403,-1.07512 0,-0.0301 -0.979527,-0.621584 -2.176726,-1.314396 l -2.176727,-1.25966 -0.493733,0.431651 c -1.109013,0.969566 -2.220434,1.510108 -3.585586,1.743856 -3.447655,0.590325 -6.921265,-1.659392 -7.83468,-5.074208 -1.17489,-4.392345 2.175831,-8.760273 6.718786,-8.758468 1.757875,6.96e-4 3.287803,0.595906 4.695808,1.826869 l 0.499405,0.43661 2.176727,-1.25966 c 1.197199,-0.692812 2.176726,-1.284073 2.176726,-1.313913 0,-0.184929 -1.35221,-1.587391 -2.117169,-2.195849 -1.467007,-1.166876 -3.33955,-2.009441 -5.277017,-2.374435 -0.922228,-0.173736 -2.650106,-0.213115 -3.667742,-0.08359 -4.254299,0.541491 -7.909738,3.315879 -9.560617,7.256274 -1.660239,3.962737 -1.10626,8.434178 1.474965,11.905166 0.470346,0.632477 1.677957,1.847103 2.313455,2.326892 1.708155,1.289627 3.728705,2.111803 5.842246,2.377251 0.775944,0.09745 2.378056,0.07379 3.190255,-0.04712 z m 8.265661,-9.864009 v -0.986078 h 1.015082 1.015081 v -1.044084 -1.044084 h -1.015081 -1.015082 v -0.986078 -0.986079 h -1.015081 -1.015081 v 0.986079 0.986078 h -1.015081 -1.015081 v 1.044084 1.044084 h 1.015081 1.015081 v 0.986078 0.986079 h 1.015081 1.015081 z m 7.018562,0 v -0.986078 h 1.015081 1.015081 v -1.044084 -1.044084 h -1.015081 -1.015081 v -0.986078 -0.986079 h -1.015081 -1.015081 v 0.986079 0.986078 h -1.015082 -1.015081 v 1.044084 1.044084 h 1.015081 1.015082 v 0.986078 0.986079 h 1.015081 1.015081 z"
     id="path835" />
</svg>
