<?xml version="1.0" encoding="UTF-8" standalone="no"?>
<svg
   xmlns:dc="http://purl.org/dc/elements/1.1/"
   xmlns:cc="http://creativecommons.org/ns#"
   xmlns:rdf="http://www.w3.org/1999/02/22-rdf-syntax-ns#"
   xmlns:svg="http://www.w3.org/2000/svg"
   xmlns="http://www.w3.org/2000/svg"
   xmlns:sodipodi="http://sodipodi.sourceforge.net/DTD/sodipodi-0.dtd"
   xmlns:inkscape="http://www.inkscape.org/namespaces/inkscape"
   version="1.0"
   width="1024"
   height="420"
   viewBox="0 0 129.24898 53.067852"
   id="svg2320"
   sodipodi:docname="sas.svg"
   inkscape:version="1.0.1 (0767f8302a, 2020-10-17)">
  <metadata
     id="metadata9">
    <rdf:RDF>
      <cc:Work
         rdf:about="">
        <dc:format>image/svg+xml</dc:format>
        <dc:type
           rdf:resource="http://purl.org/dc/dcmitype/StillImage" />
      </cc:Work>
    </rdf:RDF>
  </metadata>
  <sodipodi:namedview
     pagecolor="#ffffff"
     bordercolor="#666666"
     borderopacity="1"
     objecttolerance="10"
     gridtolerance="10"
     guidetolerance="10"
     inkscape:pageopacity="0"
     inkscape:pageshadow="2"
     inkscape:window-width="1848"
     inkscape:window-height="1016"
     id="namedview7"
     showgrid="false"
     inkscape:zoom="0.9087427"
     inkscape:cx="557.00021"
     inkscape:cy="172.92053"
     inkscape:window-x="72"
     inkscape:window-y="27"
     inkscape:window-maximized="1"
     inkscape:current-layer="g903" />
  <defs
     id="defs2322" />
  <g
     inkscape:groupmode="layer"
     id="g903"
     inkscape:label="Layer2 copy"
     style="display:inline">
    <path
       style="fill:#1565c0;stroke-width:0.778116"
       d="M 116.63296,307.22862 C 109.96979,305.09116 106.36575,301.554 87.700395,278.83292 77.680594,266.63596 61.36409,246.85237 51.441501,234.86939 30.897703,210.05975 21.35992,196.46706 14.314053,181.95754 4.9832951,162.74274 0.80023036,145.66036 0.80023036,126.77113 c 0,-12.63069 1.52167384,-22.12673 5.44861074,-34.002181 C 12.851243,72.802626 22.833761,57.451434 39.838904,41.113899 67.832464,14.219343 102.32341,0.78700518 143.19537,0.86221137 198.27875,0.96356722 247.27061,29.3296 270.99666,74.858503 c 6.26287,12.018105 6.37136,13.163265 0.65948,6.961505 C 258.91642,67.987669 241.41596,58.164566 219.93792,52.790302 205.4925,49.17575 195.78296,48.211357 179.24127,48.748132 149.12246,49.725481 127.6108,57.857976 106.84012,76.119416 69.794234,108.68992 62.048473,153.91123 87.177276,190.91504 c 2.996173,4.41205 21.817884,27.5469 42.347294,52.05149 22.09945,26.37865 22.59987,27.18998 22.60181,36.6445 0.002,5.77121 -0.2897,7.19089 -2.28285,11.14146 -6.26909,12.42586 -21.80682,20.1343 -33.21057,16.47613 z"
       id="path905"
       transform="matrix(0.12635203,0,0,0.12635203,-0.06774863,0)" />
    <path
       style="fill:#1565c0;stroke-width:0.778116"
       d="M 119.46284,418.76497 C 102.92721,416.89674 86.081635,411.79359 69.663452,403.67886 46.766299,392.36189 28.887905,376.58657 15.25433,355.67001 11.481075,349.88109 3.9126924,335.30143 3.9126924,333.82157 c 0,-0.25661 2.9995586,2.64501 6.6656856,6.44803 10.966651,11.37617 23.614486,18.99121 41.442923,24.95207 14.774709,4.93987 24.948969,6.45077 43.709021,6.49089 11.966158,0.0256 17.746808,-0.30272 23.137868,-1.31409 24.38006,-4.57371 41.52767,-13.36432 58.9772,-30.23427 13.29149,-12.85003 21.6946,-25.77353 26.28605,-40.42647 3.14375,-10.03284 3.90603,-16.13132 3.43338,-27.46779 -0.48742,-11.69047 -2.55223,-20.05738 -7.54108,-30.55759 -5.27797,-11.10875 -4.49132,-10.08572 -50.11626,-65.1753 -10.73037,-12.95633 -20.17522,-25.10341 -21.19604,-27.26036 -1.34658,-2.84528 -1.84217,-5.24947 -1.84455,-8.94833 -0.005,-6.65399 0.95622,-9.83783 4.61882,-15.30999 8.06956,-12.05647 23.21608,-17.17006 34.50227,-11.64824 5.25837,2.57268 5.5718,2.9172 33.72832,37.07373 11.46556,13.90881 26.93328,32.64194 34.37269,41.62918 26.94669,32.55312 38.4571,53.95133 43.80906,81.4424 2.37426,12.19566 2.37842,27.98671 0.0106,40.14814 -6.3124,32.42093 -26.87498,61.71545 -57.63543,82.1104 -19.46636,12.90669 -40.66036,20.35262 -65.79514,23.11533 -8.3608,0.91899 -26.34605,0.85512 -35.0152,-0.12434 z"
       id="path907"
       transform="matrix(0.12635203,0,0,0.12635203,-0.06774863,0)" />
    <path
       style="fill:#1565c0;stroke-width:0.778116"
       d="m 419.42637,339.50941 c -22.37453,-1.47828 -41.93713,-7.18008 -57.13604,-16.65315 -6.84167,-4.26422 -16.86663,-13.44699 -21.70047,-19.87742 -4.44781,-5.91689 -9.98963,-16.75391 -12.54666,-24.53498 -2.34928,-7.1489 -5.10315,-22.09717 -5.10315,-27.70042 v -3.81326 h 20.52941 20.52941 l 0.56108,5.23922 c 2.67802,25.00699 20.11205,41.68289 48.56488,46.45301 10.79099,1.80911 20.76833,2.20722 31.7872,1.26836 35.50014,-3.0248 52.92025,-18.0273 51.33142,-44.20747 -0.31643,-5.21388 -0.89491,-7.47995 -3.07891,-12.06079 -7.07637,-14.84241 -21.52398,-22.46476 -60.12115,-31.71904 -39.1958,-9.3978 -49.06765,-12.35446 -62.5442,-18.73222 -24.59749,-11.64074 -37.63431,-27.6508 -41.36936,-50.80427 -1.37975,-8.55299 -0.5788,-25.67934 1.56914,-33.5523 8.14922,-29.869813 35.86071,-51.072083 74.19014,-56.763457 10.30949,-1.530811 29.80883,-1.559848 42.60126,-0.06344 11.38346,1.331595 25.17052,4.722655 33.28189,8.185998 16.91506,7.2223 30.60221,19.676381 38.06395,34.634815 5.01251,10.048494 8.66769,23.533494 9.86013,36.376904 l 0.48766,5.25228 h -21.03079 -21.03079 v -2.41656 c 0,-4.04953 -2.31422,-11.6832 -5.28267,-17.42539 -5.82521,-11.26834 -17.31735,-19.730812 -32.45593,-23.89956 -5.5324,-1.523471 -8.08607,-1.712572 -22.95441,-1.699788 -15.60637,0.01342 -17.239,0.151962 -24.31901,2.063693 -16.66891,4.500911 -25.8735,12.336155 -29.05051,24.728715 -2.45002,9.55681 -0.0924,20.36256 5.98498,27.43158 8.99783,10.46593 21.85329,15.70092 63.6153,25.90543 28.71297,7.01598 37.4351,9.5527 49.17629,14.30226 13.83657,5.59718 20.92608,10.11584 29.95844,19.09473 6.78596,6.74578 8.31046,8.76475 11.45708,15.17325 6.20866,12.64474 8.74297,28.88117 6.87403,44.03934 -3.29765,26.7457 -16.00623,46.47683 -38.33424,59.51709 -20.77599,12.13383 -51.87245,18.27148 -82.3654,16.25684 z"
       id="path909"
       transform="matrix(0.12635203,0,0,0.12635203,-0.06774863,0)" />
    <path
       style="fill:#1565c0;stroke-width:0.0983165"
       d="m 78.834015,42.897963 c -5.066262,-0.366127 -8.328746,-2.930082 -9.257193,-7.275137 -0.245874,-1.150672 -0.245856,-3.83521 3.4e-5,-5.000087 0.758648,-3.594011 2.919532,-5.850446 6.82324,-7.124952 2.112187,-0.689599 3.41726,-0.977523 7.398902,-1.632334 4.019551,-0.661048 4.973194,-0.91952 6.064047,-1.643588 1.015056,-0.673754 1.408005,-1.543893 1.408005,-3.117857 0,-2.910667 -1.295126,-4.621485 -4.080135,-5.389721 -0.711886,-0.196372 -1.015131,-0.216998 -3.195285,-0.217329 -2.298021,-3.54e-4 -2.452769,0.01159 -3.366227,0.259602 -2.877136,0.781182 -4.399074,2.610675 -4.744971,5.703843 l -0.06322,0.565319 h -2.612447 -2.612448 l 0.06705,-0.811111 c 0.161066,-1.948341 0.721359,-3.790482 1.619646,-5.325092 0.527973,-0.901977 1.71745,-2.2051945 2.654223,-2.9080251 1.37901,-1.0346281 3.507987,-1.8821427 5.756619,-2.291625 1.041825,-0.1897195 1.52057,-0.2158591 3.89167,-0.2124862 2.176814,0.0031 2.8953,0.038729 3.686867,0.182847 1.987239,0.3618085 3.503984,0.9061319 4.652524,1.6696796 1.776801,1.1812152 2.860018,2.8275197 3.371499,5.1240967 0.217303,0.9757 0.219397,1.067887 0.275921,12.142085 0.05116,10.023782 0.07325,11.194744 0.217097,11.511098 0.387547,0.852293 1.296988,1.053257 2.813933,0.621811 l 0.22122,-0.06292 v 2.172773 2.172773 l -0.501018,0.253881 c -1.654755,0.838529 -4.287527,0.881752 -5.649424,0.09275 -0.572151,-0.331471 -1.195826,-1.048597 -1.523036,-1.751249 -0.284549,-0.611044 -0.585114,-2.019849 -0.585114,-2.742542 v -0.388688 l -0.997679,1.044958 c -1.646148,1.724153 -3.370886,2.862127 -5.442049,3.590638 -1.886222,0.663459 -4.124404,0.943251 -6.292255,0.786585 z m 3.799347,-5.015374 c 4.208251,-0.419011 7.212145,-2.592897 8.350827,-6.043403 0.217077,-0.657801 0.22877,-0.846165 0.264586,-4.262292 l 0.03747,-3.574076 -0.425445,0.262364 c -1.34757,0.831021 -2.530145,1.123858 -7.553389,1.87042 -3.118824,0.463523 -4.732538,0.953899 -6.059322,1.841306 -1.576721,1.054575 -2.298847,2.530658 -2.296411,4.694046 0.0019,1.679375 0.348732,2.625358 1.320213,3.600786 1.331946,1.337357 3.526677,1.893105 6.361467,1.610849 z"
       id="path911" />
    <path
       style="fill:#1565c0;stroke-width:0.778116"
       d="M 885.51756,339.50941 C 855.40523,337.5199 832.4084,328.65715 815.42703,312.49717 799.88657,297.7084 791.32143,278.54184 789.1691,253.73869 l -0.59082,-6.80851 h 20.75688 20.75688 l 0.53405,4.47416 c 3.49266,29.26093 22.75851,45.07496 59.07334,48.48931 11.52618,1.0837 27.37442,0.0847 37.60905,-2.37074 23.6762,-5.68024 35.24251,-18.48054 35.24251,-39.00251 0,-23.22242 -15.53361,-35.10078 -59.91489,-45.8162 -39.17267,-9.45784 -42.4136,-10.33848 -55.27254,-15.01872 -29.9048,-10.88439 -46.58249,-27.74766 -51.72382,-52.29937 -1.64563,-7.85849 -1.70474,-23.53078 -0.11904,-31.56508 6.07096,-30.760046 30.73233,-52.482787 68.9278,-60.714415 9.57676,-2.063917 32.71177,-2.854551 45.31827,-1.54874 17.20255,1.781882 30.65712,5.321414 42.2329,11.110334 8.20813,4.104793 12.21288,6.907952 18.61376,13.028826 9.64206,9.220273 16.30001,20.563845 20.35135,34.673875 1.83386,6.38697 4.21781,20.01759 4.25281,24.31611 l 0.0143,1.75076 H 974.22272 953.2136 v -2.15546 c 0,-3.56282 -3.05915,-13.47587 -5.69643,-18.45906 C 941.9635,105.32953 929.9458,96.654872 915.475,92.694478 c -5.48864,-1.502141 -8.20368,-1.7065 -22.9544,-1.727756 -14.87583,-0.02144 -17.46233,0.168688 -23.34347,1.715905 -13.42899,3.532913 -22.67407,9.630093 -27.03181,17.827623 -7.40661,13.93289 -4.08836,29.90175 8.22676,39.59061 9.97497,7.84775 21.55413,11.96656 60.94859,21.67991 44.93484,11.07944 61.00307,17.77546 75.54637,31.48201 15.00616,14.14274 22.05856,35.94421 19.28586,59.61877 -3.1932,27.26447 -15.44819,46.76885 -37.71299,60.02181 -20.82432,12.39554 -52.0386,18.64651 -82.92235,16.60605 z"
       id="path913"
       transform="matrix(0.12635203,0,0,0.12635203,-0.06774863,0)" />
    <path
       style="fill:#1565c0;stroke-width:0.194529"
       d="m 300.08244,344.50267 c -4.13342,-0.79488 -7.84714,-2.93788 -10.30592,-5.94702 -1.14894,-1.40612 -2.54543,-4.1479 -3.05133,-5.9908 -0.53998,-1.96702 -0.49556,-6.41667 0.0841,-8.42295 1.59822,-5.53186 6.05056,-9.90356 11.53366,-11.32473 9.42145,-2.44197 18.66778,3.41566 20.31661,12.87073 0.36955,2.11916 0.36873,3.46922 -0.003,5.6032 -0.60245,3.45469 -2.0206,6.14886 -4.57622,8.69378 -1.80949,1.80192 -3.8985,3.07067 -6.41084,3.89362 -1.63569,0.53579 -2.14977,0.61179 -4.47417,0.66152 -1.44438,0.0309 -2.84498,0.0141 -3.11246,-0.0374 z m 7.01163,-3.11195 c 3.90199,-1.36565 6.70259,-4.25593 8.08078,-8.33955 0.75806,-2.24618 0.88742,-5.74443 0.29852,-8.07322 -1.24954,-4.94123 -4.53133,-8.41996 -9.16739,-9.71752 -1.82439,-0.51061 -4.9534,-0.56543 -6.87235,-0.1204 -4.72162,1.09502 -8.4641,4.85716 -9.78679,9.83819 -0.50102,1.88678 -0.45253,5.29112 0.10378,7.28607 1.32243,4.74223 4.76941,8.19906 9.43167,9.45862 2.18088,0.58918 5.70157,0.44136 7.91178,-0.33219 z"
       id="path915"
       transform="matrix(0.12635203,0,0,0.12635203,-0.06774863,0)" />
    <path
       style="fill:#1565c0;stroke-width:0.194529"
       d="m 296.38639,328.46207 v -9.35506 l 4.71733,0.0767 c 4.33429,0.0705 4.80763,0.11236 5.82956,0.51562 2.47361,0.9761 3.66655,3.72396 2.83089,6.52075 -0.44967,1.50497 -2.55493,3.03776 -4.17231,3.03776 -0.24842,0 -0.45167,0.0827 -0.45167,0.18381 0,0.10109 1.12105,1.9175 2.49123,4.03647 1.37017,2.11897 2.5571,3.9621 2.63762,4.09583 0.11192,0.18592 -0.19646,0.24317 -1.30981,0.24317 h -1.4562 l -2.46469,-4.08511 -2.46469,-4.08511 h -1.73193 -1.73192 v 4.08511 4.08511 h -1.36171 -1.3617 z m 9.41716,-1.53917 c 0.96529,-0.49652 1.3649,-1.22986 1.37246,-2.51864 0.005,-0.86584 -0.0929,-1.28184 -0.39982,-1.69688 -0.73088,-0.98846 -1.26786,-1.12793 -4.60256,-1.19543 l -3.06383,-0.062 v 2.94841 2.94841 l 3.06383,-0.0663 c 2.23116,-0.0483 3.21767,-0.14546 3.62992,-0.35751 z"
       id="path917"
       transform="matrix(0.12635203,0,0,0.12635203,-0.06774863,0)" />
    <path
       style="fill:#1565c0;stroke-width:0.194529"
       d="m 1003.9573,344.50267 c -4.13339,-0.79488 -7.84712,-2.93788 -10.30589,-5.94702 -1.1345,-1.38846 -2.55174,-4.15874 -3.01504,-5.89354 -0.50449,-1.889 -0.60417,-5.35146 -0.21015,-7.29922 1.17255,-5.79623 5.33427,-10.44907 10.96438,-12.25824 9.6655,-3.10594 19.7311,2.87662 21.4503,12.74918 0.1425,0.81779 0.192,2.18563 0.1266,3.49267 -0.2969,5.93352 -3.7602,11.07692 -9.1865,13.64309 -2.542,1.20217 -3.6819,1.46379 -6.7112,1.54029 -1.4444,0.0365 -2.845,0.0242 -3.1125,-0.0272 z m 6.8085,-2.98528 c 2.122,-0.71358 3.6796,-1.69934 5.3555,-3.38938 2.6363,-2.65849 3.8464,-5.69404 3.8464,-9.64827 0,-2.50233 -0.3841,-4.19926 -1.4491,-6.40198 -1.1293,-2.3357 -3.48,-4.69312 -5.8075,-5.82411 -2.2673,-1.10176 -3.5748,-1.40061 -6.1276,-1.40061 -2.5579,0 -3.8684,0.30051 -6.1211,1.40357 -2.39118,1.17088 -4.32169,3.14051 -5.51464,5.62638 -1.08961,2.27052 -1.49499,4.05931 -1.49499,6.59675 0,2.41343 0.3975,4.27742 1.34822,6.32219 1.63384,3.51399 4.89397,6.15387 8.67001,7.02053 1.76,0.40396 5.673,0.24032 7.2948,-0.30507 z"
       id="path919"
       transform="matrix(0.12635203,0,0,0.12635203,-0.06774863,0)" />
    <path
       style="fill:#1565c0;stroke-width:0.194529"
       d="m 1000.4558,328.47974 v -9.33739 h 4.1499 c 4.6801,0 5.9215,0.17668 7.3749,1.04962 1.4363,0.86265 2.0922,2.15872 2.0922,4.13386 0,1.66212 -0.324,2.6009 -1.2156,3.52216 -0.6403,0.6616 -2.3331,1.40986 -3.1894,1.40986 -0.32,0 -0.4662,0.0875 -0.4064,0.24317 0.051,0.13373 1.2425,2.0173 2.6469,4.18571 1.4045,2.1684 2.5536,3.98481 2.5536,4.03647 0,0.0517 -0.6347,0.0931 -1.4103,0.092 l -1.4104,-0.002 -2.4443,-4.03456 -2.4443,-4.03457 -1.884,-0.0557 -1.8839,-0.0557 v 4.09215 4.09216 h -1.2645 -1.2644 z m 9.4919,-1.62062 c 0.9196,-0.49304 1.4001,-1.38596 1.401,-2.60361 6e-4,-0.85036 -0.094,-1.12203 -0.5827,-1.679 -0.7865,-0.89576 -1.7228,-1.09981 -5.0468,-1.09981 h -2.7345 v 2.93793 2.93792 l 3.1611,-0.0749 c 2.5479,-0.0604 3.2854,-0.14158 3.8019,-0.41849 z"
       id="path921"
       transform="matrix(0.12635203,0,0,0.12635203,-0.06774863,0)" />
  </g>
</svg>
